<svg width="60" height="81" viewBox="0 0 60 81" xmlns="http://www.w3.org/2000/svg" xmlns:xlink="http://www.w3.org/1999/xlink"><defs><path d="M.467 26.474c0 14.428 11.714 26.124 26.166 26.124 14.451 0 26.166-11.696 26.166-26.124C52.799 12.046 41.084.35 26.633.35 12.18.35.467 12.046.467 26.474" id="a"/><path d="M.467 26.474c0 14.428 11.714 26.124 26.166 26.124 14.451 0 26.166-11.696 26.166-26.124C52.799 12.046 41.084.35 26.633.35 12.18.35.467 12.046.467 26.474z" id="c"/><path d="M.467 26.474c0 14.428 11.714 26.124 26.166 26.124 14.451 0 26.166-11.696 26.166-26.124C52.799 12.046 41.084.35 26.633.35 12.18.35.467 12.046.467 26.474" id="e"/><path d="M.467 26.474c0 14.428 11.714 26.124 26.166 26.124 14.451 0 26.166-11.696 26.166-26.124C52.799 12.046 41.084.35 26.633.35 12.18.35.467 12.046.467 26.474" id="g"/><path d="M.467 26.474c0 14.428 11.714 26.124 26.166 26.124 14.451 0 26.166-11.696 26.166-26.124C52.799 12.046 41.084.35 26.633.35 12.18.35.467 12.046.467 26.474" id="i"/><path d="M.467 26.474c0 14.428 11.714 26.124 26.166 26.124 14.451 0 26.166-11.696 26.166-26.124C52.799 12.046 41.084.35 26.633.35 12.18.35.467 12.046.467 26.474" id="k"/><path d="M.467 26.474c0 14.428 11.714 26.124 26.166 26.124 14.451 0 26.166-11.696 26.166-26.124C52.799 12.046 41.084.35 26.633.35 12.18.35.467 12.046.467 26.474" id="m"/><path d="M.467 26.474c0 14.428 11.714 26.124 26.166 26.124 14.451 0 26.166-11.696 26.166-26.124C52.799 12.046 41.084.35 26.633.35 12.18.35.467 12.046.467 26.474z" id="o"/></defs><g fill="none" fill-rule="evenodd"><g fill-rule="nonzero"><path d="M51.018 59.184c4.08 1.212 8.488 2.828 8.817 9.358 0 0-3.85 2.532-10.804 4.558l-.053-.182c-2.632-9.56.395-13.868.395-13.868l.086-.317c.52.142 1.04.297 1.559.451" fill="#B7C1D2"/><path d="M49.458 58.734l-.085.316s-3.027 4.308-.395 13.868l.053.182c-8.461 2.47-21.521 4.2-37.839-.263l.086-.322c2.631-9.493-.395-13.802-.395-13.802l-.026-.101c3.605-.989 7.264-1.757 10.961-2.383.02 0 .033-.006.052-.006l3.224 1.952 2.922-10.152v-.216h3.257v.216L34.7 58.04l3.238-1.858.052-.027c3.875.653 7.698 1.508 11.468 2.579" fill="#F2F2F2"/><path fill="#B7C1D2" d="M37.925 56.155l.013.027L34.7 58.04l-3.427-10.017v-.216h6.652zM28.016 47.807v.215l-2.922 10.153-3.223-1.953c-.02 0-.033.007-.052.007l-.014-.074v-8.348h6.21zM10.883 58.713s3.026 4.31.395 13.802l-.086.322A90.785 90.785 0 01.158 69.013l-.132-.47c.33-6.53 4.738-8.147 8.817-9.359.671-.202 1.342-.39 2.014-.572l.026.101z"/><path d="M48.681 72.412s-14.527-3.202-16.776-12.45l3.55 14.821s6.702-.104 13.27-2.171l-.044-.2zM25.544 56.088l2.312 3.732-3.784 14.87 2.033.06 3.573-15.652-3.54-4.726z" fill="#F8F8F8"/><g fill="#EE476F"><path d="M31.526 59.76l3.778 15.246-4.924 5.885-5.263-6.019 3.171-15.113zM32.808 52.536l.742 2.408-2.024 4.815h-3.238l-2.429-4.682.877-2.54z"/></g><path d="M56.096 26.562c0 14.428-11.716 26.124-26.167 26.124-14.45 0-26.165-11.696-26.165-26.124C3.764 12.134 15.478.438 29.929.438c14.451 0 26.167 11.696 26.167 26.124" fill="#12326B"/></g><g transform="translate(3.297 .088)"><mask id="b" fill="#fff"><use xlink:href="#a"/></mask><path d="M-5.321 28.669h-1.098l-2.424-2.42a4.028 4.028 0 00-2.845-1.176h-3.19l-2.854-2.849a3.703 3.703 0 00-2.615-1.081h-1.148V17.84h3.571a4.423 4.423 0 003.125-1.292l8.128-8.115v-.668A1.968 1.968 0 00-8.641 5.8h-1.506l-1.74-1.738a.575.575 0 00-.981.406V7.55h-3.392l-2.364-2.36 1.484-1.935v-.62A1.73 1.73 0 00-18.872.906h-17.982a5.229 5.229 0 00-3.021.961 2.38 2.38 0 00-1.004 1.941v2.625c0 .17.207.256.327.136l1.445-1.442a2.636 2.636 0 011.864-.771h.087c.843 0 1.653.335 2.25.93l2.983 2.752v4.07c0 1.528.608 2.994 1.69 4.075l1.545 1.542 4.237 4.23a4.374 4.374 0 003.09 1.278h1.29l2.166 2.164-1.356 1.354c-.64.639-1 1.506-1 2.41v2.929c0 1.09.434 2.134 1.205 2.902l2.293 2.29v7.86a6.057 6.057 0 003.851 5.64l.409.16v-7.156l9.35-10.184v-2.769c0-1.195-.971-2.164-2.168-2.164" fill="#D0D6E1" fill-rule="nonzero" mask="url(#b)"/></g><g transform="translate(3.297 .088)"><mask id="d" fill="#fff"><use xlink:href="#c"/></mask><path d="M65.058 35.695a2.533 2.533 0 00-1.789-.74h-3.115c-.67 0-1.314.266-1.789.74l-1.681 1.68a3.594 3.594 0 00-1.05 2.345 3.095 3.095 0 003.119 3.293h3.418l1.064 1.062a3.697 3.697 0 002.611 1.08h2.456v-3.96a5.459 5.459 0 00-1.603-3.862l-1.641-1.638z" fill="#D0D6E1" fill-rule="nonzero" mask="url(#d)"/></g><g transform="translate(3.297 .088)"><mask id="f" fill="#fff"><use xlink:href="#e"/></mask><path d="M49.369 28.681l3.084 3.08a1.739 1.739 0 002.455 0l-3.084-3.08a1.739 1.739 0 00-2.455 0" fill="#D0D6E1" fill-rule="nonzero" mask="url(#f)"/></g><g transform="translate(3.297 .088)"><mask id="h" fill="#fff"><use xlink:href="#g"/></mask><path d="M29.35 39.003v2.208h.395a2.11 2.11 0 002.11-2.109v-2.208h-.394a2.11 2.11 0 00-2.111 2.109" fill="#D0D6E1" fill-rule="nonzero" mask="url(#h)"/></g><g transform="translate(3.297 .088)"><mask id="j" fill="#fff"><use xlink:href="#i"/></mask><path d="M57.219 26.719v-1.807h-.323c-.955 0-1.727.772-1.727 1.725v1.807h.322c.954 0 1.728-.773 1.728-1.725" fill="#D0D6E1" fill-rule="nonzero" mask="url(#j)"/></g><g transform="translate(3.297 .088)"><mask id="l" fill="#fff"><use xlink:href="#k"/></mask><path d="M2.192-1.833H-4.11c-.745 0-1.432.401-1.798 1.049l-.19.337c-.414.72-.616 1.608-.003 2.222l2.107 2.117v1.14c0 .919.367 1.801 1.018 2.451L-1.7 8.758l5.948-5.94V.222c0-1.135-.92-2.055-2.057-2.055" fill="#D0D6E1" fill-rule="nonzero" mask="url(#l)"/></g><g transform="translate(3.297 .088)"><mask id="n" fill="#fff"><use xlink:href="#m"/></mask><path d="M12.15 7.408V4.753h-.09c-.884 0-1.6.715-1.6 1.597v2.746c.934 0 1.69-.756 1.69-1.688" fill="#D0D6E1" fill-rule="nonzero" mask="url(#n)"/></g><g transform="translate(3.297 .088)"><mask id="p" fill="#fff"><use xlink:href="#o"/></mask><path d="M70.91 4.089c0-1.017-.825-1.84-1.843-1.84h-4.806l-.879-.877A3.601 3.601 0 0060.84.319h-6.703L52.244-1.57A3.942 3.942 0 0049.46-2.72h-4.344a4.23 4.23 0 00-2.988 1.235L40.465.174h-2.463c-1.121 0-2.196.444-2.988 1.235l-1.496 1.492h-8.172l-1.839-1.835A2.969 2.969 0 0021.408.2h-1.53a2.34 2.34 0 00-1.654.683l-2.1 2.096a1.98 1.98 0 000 2.805l.23.23 3.27-3.265 1.226 1.224L19.41 5.41a2.752 2.752 0 00-.809 1.95v.693h-2.698a3.184 3.184 0 00-3.183 3.178v.597a4.629 4.629 0 00-3.27 1.353 2.314 2.314 0 000 3.278l.707.707 2.793-2.788h1.84l1.243 1.24a3.432 3.432 0 002.424 1.003h1.166l1.226-1.223h2.043l1.027 1.025 2.102 2.099-2.311 2.308-.314.28-.485-.645c-.061-.08-.124-.163-.212-.214-.118-.069-.261-.07-.397-.07-2.64.012-5.28.112-7.907-.17-1.907-.206-3.974-.299-5.664.725-1.415.856-2.405 2.262-2.964 3.797-.74 2.03-.794 4.414.754 6.089 1.212 1.311 3.114 1.903 4.868 1.667a5.12 5.12 0 001.387-.384c.196-.087.423-.288.623-.337.231-.057.111-.105.346-.026.202.068.492.5.645.656a.55.55 0 00.204.15c.063.02.131.016.199.013.273-.013.547-.028.82-.04.029.823.058 1.647.084 2.47a.542.542 0 00.036.214.539.539 0 00.204.197l.473.315c.099.066.2.135.264.236a.856.856 0 01.099.287c.203.964.821 2.356.388 3.266-.251.53-.795 1.197-.728 1.8.021.193.102.374.181.55l2.673 5.915c.056.124.114.252.213.345l.01.01c.53.472 2.237.16 2.734-.212.32-.24.535-.59.805-.885.506-.554 1.23-.949 1.506-1.646.05-.126.084-.26.147-.38.285-.553 1-.443.979-1.235-.008-.325-.13-.636-.186-.956-.02-.109-.03-.227.02-.326a.587.587 0 01.186-.189l2.073-1.546a.507.507 0 00.178-.185c.216-.474.016-1.377.009-1.885 0-.798-.258-2.037.065-2.776.096-.218.265-.393.431-.565l1.676-1.729c.488-.504 1.005-1.071 1.048-1.77.046-.748-.444-1.442-.966-1.932-1.225-1.152-2.224-2.59-3.26-3.906-.627-.796-1.24-1.603-1.85-2.414l.852-.852 3.333 3.328a3.238 3.238 0 004.573 0l1.153-1.151-4.189-4.182.921-.92 1.043 1.04a3.434 3.434 0 002.43 1.005h1.01l2.395 2.38a1.545 1.545 0 002.18-.004l4.051-4.046 4.72 4.713c.314.313.74.49 1.185.49 1.028 0 1.86-.831 1.86-1.857V21.62l2.101-2.097a2.936 2.936 0 00.862-2.078v-1.231h2.227c.929 0 1.82-.37 2.477-1.025l.258-.257 2.384-2.38a4.208 4.208 0 001.236-2.979V7.033h4.324l2.419-2.414v-.53z" fill="#D0D6E1" fill-rule="nonzero" mask="url(#p)"/></g></g></svg>
