<svg xmlns="http://www.w3.org/2000/svg" width="60" height="60"><g fill="none" fill-rule="evenodd"><path fill="#F2F2F2" d="M30 60c16.568 0 30-13.431 30-30C60 13.432 46.568 0 30 0 13.432 0 0 13.432 0 30c0 16.569 13.432 30 30 30"/><path fill="#B28B67" d="M43.375 15.857c3.226 0 5.842 2.645 5.842 5.906 0 3.262-2.616 5.906-5.842 5.906-3.228 0-5.843-2.644-5.843-5.906 0-3.26 2.615-5.906 5.843-5.906"/><path fill="#EC6500" d="M53.829 43.21c0-7.37-4.678-13.365-10.471-13.365-5.792 0-10.438 5.965-10.438 13.366h20.909z"/><path fill="#0B1C49" d="M43.584 15.236h-.428c-7.88.217-6.443 13.055-6.443 13.055h2.412c-.61-7.398.58-9.45.58-9.45h7.33s1.222 2.021.58 9.45h2.413c.937-8.559-1.212-12.91-6.444-13.055"/><g><path fill="#F4D3A6" d="M22.466 21.764c0 3.25-2.627 5.905-5.842 5.905s-5.843-2.655-5.843-5.905c0-3.25 2.628-5.906 5.843-5.906s5.842 2.656 5.842 5.906"/><path fill="#EC6500" d="M27.078 43.21c0-7.37-4.677-13.365-10.47-13.365-5.792 0-10.438 5.965-10.438 13.366h20.908z"/><path fill="#F5A522" d="M12.82 19.193a5.814 5.814 0 00-.855 3.617l-1.096.82s-.853-3.336.944-5.286l1.006.85z"/><path fill="#F5A522" d="M18.454 19.321s-6.286 1.354-7.365-3.015a2.785 2.785 0 002.311.278c1.233-.43 4.438-2.584 7.551.984 1.448 1.661 1.879 3.968 1.201 6.06l-1.078-.616s.277-4.49-2.62-3.69"/></g><g><path fill="#FFA200" d="M39.993 44.764c0-7.37-4.677-13.365-10.47-13.365-5.792 0-10.438 5.995-10.438 13.365h20.908z"/><path fill="#907154" d="M35.38 23.317c0 3.25-2.626 5.906-5.841 5.906-3.215 0-5.842-2.656-5.842-5.906 0-3.25 1.642-7.187 5.842-7.187 3.215 0 5.842 3.906 5.842 7.187"/><path fill="#E65135" d="M23.556 23.545c.688-1.128 1.102-1.91 1.24-2.35.285-.907.363-1.74.31-1.962-.12-.513.032-1.03-.31-1.03-.31 0-.67.292-.93.72-.367.602-.62 1.657-.62 2.271 0 .54.104 1.323.31 2.351"/><path fill="#E65135" d="M29.135 20.59c.923 0 3.097-.258 4.339.342 1.242.599 1.552 2.67 1.859 2.848.174.102.31.47.31-2.27 0-.827-.112-1.41-.31-1.956a4.956 4.956 0 00-.93-1.572c-.93-1.093-2.698-2.259-4.803-2.259-2.482 0-4.493 1.159-4.493 2.589 0 1.429 1.547 2.278 4.028 2.278"/></g></g></svg>