<svg xmlns="http://www.w3.org/2000/svg" width="60" height="60"><g fill="none" fill-rule="evenodd"><path fill="#F2F2F2" d="M30 60c16.568 0 30-13.432 30-30C60 13.431 46.568 0 30 0 13.432 0 0 13.431 0 30c0 16.568 13.432 30 30 30"/><path fill="#12326B" d="M52 30c0 12.15-9.849 22-22 22-12.15 0-22-9.85-22-22S17.85 8 30 8c12.151 0 22 9.85 22 22"/><path fill="#D0D6E1" d="M51.888 32.236a21.979 21.979 0 01-.268 1.857l-2.151-2.177a1.474 1.474 0 012.103 0l.316.32zM16.152 12.905c.466-.379.949-.739 1.446-1.078v1.62c0 .809-.647 1.465-1.446 1.465v-2.007zm4.52-2.835a21.853 21.853 0 016.847-1.932l1.378 1.396h6.998l.564-.57c8.463 2.594 14.753 10.156 15.472 19.284-.29.387-.75.636-1.267.636-.38 0-.746-.153-1.016-.425l-4.04-4.091-3.47 3.512a1.31 1.31 0 01-1.867.002l-2.05-2.065h-.867c-.78 0-1.528-.314-2.08-.873l-.892-.903-.79.799 3.587 3.63-.988 1a2.746 2.746 0 01-3.916 0l-2.853-2.888-.73.739c.523.703 1.048 1.404 1.584 2.096.888 1.143 1.743 2.39 2.792 3.39.447.426.868 1.029.827 1.678-.037.607-.479 1.1-.897 1.537l-1.435 1.5c-.142.149-.287.303-.369.492-.277.642-.055 1.717-.055 2.41.005.44.176 1.225-.009 1.637a.439.439 0 01-.152.16c-.59.448-1.184.895-1.776 1.342-.06.047-.125.096-.159.164-.043.086-.033.189-.017.283.05.279.153.548.16.83.017.688-.595.593-.839 1.073-.053.105-.082.22-.124.33-.238.605-.858.948-1.29 1.428-.232.257-.416.56-.69.769-.426.324-1.889.594-2.34.185l-.01-.01c-.085-.08-.135-.192-.183-.3l-2.288-5.134a1.6 1.6 0 01-.156-.477c-.057-.525.41-1.104.624-1.564.371-.79-.159-2-.333-2.835a.76.76 0 00-.083-.25c-.055-.088-.143-.147-.228-.205l-.404-.273a.457.457 0 01-.175-.171.485.485 0 01-.03-.186l-.073-2.145c-.234.01-.468.024-.703.036a.444.444 0 01-.17-.013.448.448 0 01-.173-.13c-.132-.134-.38-.51-.553-.57-.2-.067-.099-.025-.296.024-.172.042-.367.217-.534.292a4.32 4.32 0 01-1.188.334c-1.502.205-3.132-.31-4.169-1.448-1.325-1.454-1.279-3.523-.645-5.287.478-1.332 1.327-2.553 2.538-3.296 1.447-.89 3.218-.808 4.85-.63 2.25.246 4.511.158 6.771.149.116 0 .24 0 .34.06.075.044.13.116.181.187.14.185.277.373.415.559l.27-.244 1.98-2.004-1.8-1.821-.88-.891h-1.75l-1.05 1.063H23a2.921 2.921 0 01-2.077-.87l-1.065-1.078h-1.574l-2.39 2.42-.608-.613a2.03 2.03 0 010-2.846 3.939 3.939 0 012.801-1.175v-.518c0-.731.287-1.433.8-1.951a2.707 2.707 0 011.925-.808h2.311v-.602c0-.635.25-1.244.692-1.693l1.233-1.248-1.05-1.062-2.8 2.834-.197-.2a1.74 1.74 0 01-.33-1.965zm11.654 30.807c0-1.01.81-1.83 1.81-1.83h.336v1.917c0 1.011-.809 1.83-1.808 1.83h-.338v-1.917z"/></g></svg>