<svg xmlns="http://www.w3.org/2000/svg" width="60" height="60"><g fill="none" fill-rule="evenodd"><path fill="#F2F2F2" d="M30 60c16.569 0 30-13.432 30-30C60 13.432 46.569 0 30 0 13.43 0 0 13.432 0 30 0 46.568 13.43 60 30 60"/><path fill="#DC6C00" d="M30.567 24.348v-3.501h15.298V28.016H30.567v-3.668zm17.986 11.116h1.684v3.667H34.939v-3.667h-1.684v-3.668h15.298v3.668zm-12.101 7.461v-3.669H51.75v3.669H36.452zM33.76 20.698V17.03h15.298v3.668H33.76z"/><path fill="#12326B" d="M30.567 24.348v-3.501h15.298V28.016H30.567v-3.668zm17.986 11.116h1.684v3.667H34.939v-3.667h-1.684v-3.668h15.298v3.668zm-12.101 7.461v-3.669H51.75v3.669H36.452zM33.76 20.698V17.03h15.298v3.668H33.76z" opacity=".1"/><path fill="#DC6C00" d="M25.305 18.668l1.005 2.996c.242.691 3.454.127 7.2-1.251 3.745-1.378 6.593-3.05 6.364-3.733l-.83-2.455-.198-.613-13.54 5.056z"/><path fill="#F5A522" d="M38.846 13.612c.242.69-2.62 2.358-6.367 3.732-3.747 1.375-6.97 1.94-7.199 1.251-.23-.687 2.62-2.358 6.364-3.733 3.745-1.375 6.971-1.935 7.202-1.25"/><path fill="#FFF" d="M32.689 15.48c.08-.118.229-.24.502-.33.73-.242 1.098.11 1.098.11l-1.691.61s-.052-.188.09-.39m-3.074 1.22a1.54 1.54 0 01.522-.318c.63-.252.923.034.923.034l-1.626.593s.004-.136.18-.308m-1.825.499l-.082.243.8-.261-.152.312-.731.262-.098.188.968-.328.082.236.85-.33-.095-.187 5.35-1.91.298.14.94-.334-.324-.215.94-.371-.213-.146-.941.368-.274-.138 1.024-.373-.158-.144s-.263.08-1.007.346c-.115-.181-2.61-.006-3.181 1.227-.84-.072-2.305.139-3.046 1.089-1.002.354-.95.326-.95.326"/><path fill="#DC6C00" d="M41.276 18.433a83.27 83.27 0 00-2.385 1.215c-2.507 1.274-3.241 5.039-1.53 8.348 1.714 3.309 4.924 4.888 7.462 3.673.856-.394 2.049-.97 2.69-1.304l-6.237-11.932z"/><path fill="#F5A522" d="M47.305 30.531c2.524-1.284 3.187-5.01 1.478-8.324-1.708-3.313-5.14-4.957-7.665-3.672-2.525 1.284-3.187 5.012-1.478 8.324 1.708 3.313 5.14 4.957 7.665 3.672"/><path fill="#FFF" d="M45.42 24.983c.274-.044.535.012.665.303.345.77-.745 1.766-.745 1.766l-.87-1.626s.491-.368.95-.443m-1.974-3.014c.207-.007.425.067.596.326.415.628-.36 1.588-.36 1.588l-.89-1.646s.31-.252.654-.268m-.693-2.299l-.505.354.393.923-.647.358-.395-.769-.376.226.47 1.042-.536.634.483.791.447-.539 2.646 5.168-.49.64.426.838.722-.762.541.803.506-.47-.548-.829.503-.558.538.964.481-.368s-.096-.27-.488-.993c.558-.36 1.053-3.844-1.947-3.102.442-1.472.296-3.667-1.706-3.266-.57-1.123-.518-1.085-.518-1.085"/><path fill="#DC6C00" d="M44.011 31.31l-2.259 2.21c-.516.52 1.39 3.165 4.26 5.937 2.871 2.773 5.616 4.608 6.133 4.105l1.848-1.817.464-.444-10.446-9.99z"/><path fill="#F5A522" d="M54.458 41.3c-.516.52-3.264-1.331-6.132-4.106-2.868-2.776-4.78-5.431-4.26-5.937.519-.507 3.263 1.332 6.132 4.105 2.868 2.772 4.777 5.432 4.26 5.939"/><path fill="#FFF" d="M50.096 36.571c.143.021.316.1.517.307.536.553.378 1.037.378 1.037l-1.286-1.257s.148-.128.391-.087m-2.438-2.238c.137.05.31.144.514.332.502.46.372.845.372.845l-1.242-1.206s.125-.055.356.03m-1.243-1.428l-.255.032.583.608-.346-.002-.556-.544-.21-.006.716.728-.177.177.667.622.127-.168 4.048 3.987.004.328.711.703.053-.387.743.685.038-.256-.74-.687.004-.307.782.76.06-.206s-.186-.202-.75-.755c.114-.182-1.13-2.35-2.489-2.33-.302-.787-1.129-2.014-2.307-2.268-.754-.748-.706-.714-.706-.714"/><g><path fill="#445302" d="M19.925 13.843L44.86 33.738 34.532 46.681 9.598 26.785z"/><path fill="#618E4B" d="M20.095 16.572l22.03 17.579-7.83 9.812-22.029-17.577z"/><path fill="#445302" fill-rule="nonzero" d="M22.564 18.476c-1.2 1.507-3.131 1.848-4.57.702l-.558.7c1.847 1.47 4.336 1.031 5.828-.844l-.7-.558z"/><path stroke="#445302" stroke-width=".895" d="M14.592 23.45c1.72 1.367 1.691 3.635.414 5.241m24.497 3.267c-1.279 1.606-1.306 3.873.413 5.241m-3.12 3.922c-1.72-1.368-3.922-.833-5.2.772"/><path fill="#445302" d="M29.96 27.046c1.895 1.511 2.23 4.238.752 6.092-1.48 1.854-4.213 2.133-6.107.622-1.895-1.51-2.231-4.236-.752-6.09 1.479-1.855 4.213-2.135 6.108-.624"/><path fill="#445302" d="M7.971 28.797l31.899-.05.027 16.558-31.9.051z"/><path fill="#618E4B" d="M9.81 30.822l28.184-.043.019 12.553-28.182.046z"/><path stroke="#445302" stroke-width=".895" d="M13.375 30.765c.006 2.054-1.38 3.848-3.576 3.854"/><path fill="#445302" fill-rule="nonzero" d="M9.814 40.079c1.84-.005 3.144 1.461 3.15 3.386l.895-.002c-.007-2.396-1.687-4.286-4.047-4.28l.002.896z"/><path stroke="#445302" stroke-width=".895" d="M34.577 30.705c.005 2.054 1.4 3.84 3.598 3.834m.013 5.012c-2.195.006-3.582 1.801-3.576 3.854"/><path fill="#445302" d="M24.057 32.834c2.422-.004 4.39 1.915 4.393 4.287.003 2.372-1.956 4.297-4.379 4.302-2.423.005-4.389-1.914-4.393-4.285-.005-2.372 1.955-4.299 4.38-4.304"/><path fill="#445302" d="M10.859 19.529l30.153 10.405-5.401 15.653L5.458 35.18z"/><path fill="#618E4B" d="M11.933 22.044l26.641 9.194-4.095 11.868-26.642-9.194z"/><path fill="#445302" fill-rule="nonzero" d="M14.896 23.013c-.627 1.821-2.333 2.79-4.074 2.191l-.29.847c2.233.767 4.43-.48 5.21-2.747l-.846-.291zM8.903 30.79c1.74.598 2.49 2.41 1.865 4.232l.847.29c.778-2.266-.189-4.601-2.421-5.369l-.291.847zm26.044-.887c-.78 2.267.187 4.603 2.42 5.371l.291-.846c-1.74-.6-2.492-2.413-1.865-4.233l-.846-.292zm1.082 9.264c-2.233-.768-4.432.48-5.21 2.747l.846.29c.625-1.82 2.332-2.79 4.073-2.19l.29-.847z"/><path fill="#445302" d="M24.894 28.626c2.354.825 3.618 3.394 2.823 5.737-.795 2.344-3.348 3.574-5.703 2.75-2.354-.825-3.616-3.395-2.822-5.737.796-2.345 3.347-3.576 5.702-2.75"/></g></g></svg>